<?xml version="1.0" encoding="iso-8859-1"?>
<!-- Generator: Adobe Illustrator 21.0.0, SVG Export Plug-In . SVG Version: 6.00 Build 0)  -->
<svg xmlns="http://www.w3.org/2000/svg" xmlns:xlink="http://www.w3.org/1999/xlink" version="1.1" id="Capa_1" x="0px" y="0px" viewBox="0 0 512 512" style="enable-background:new 0 0 512 512;" xml:space="preserve" width="512" height="512">
<g>
	<path style="fill:#E0F4FF;" d="M105,315.85c-5.098,0-10.203-0.601-15-1.5c-34.2-6.901-60-37.202-60-73.5   c0-36.301,25.8-66.601,60-73.5c4.541-0.851,9.368-1.359,14.194-1.419L90,137.049c-50.698,7.2-90,51-90,103.801   c0,56.1,44.099,101.999,99.302,104.7c1.798,0.3,3.896,0.3,5.698,0.3c8.401,0,15-6.601,15-15C120,322.449,113.401,315.85,105,315.85   z"/>
	<path style="fill:#BBDCFF;" d="M422,137.049l-11.646,29.136c3.948,0.196,7.921,0.465,11.646,1.165c34.2,6.899,60,37.2,60,73.5   c0,36.299-25.8,66.599-60,73.5c-4.797,0.899-9.902,1.5-15,1.5c-8.401,0-15,6.599-15,15c0,8.399,6.599,15,15,15   c1.802,0,3.9,0,5.698-0.3c55.203-2.701,99.302-48.6,99.302-104.7C512,188.05,472.698,144.249,422,137.049z"/>
	<g>
		<path style="fill:#76E2F8;" d="M407,135.85h-46.901c-24.598,0-45.901-5.7-61.501-16.5C286,110.649,271,106.15,256,106.15    s-30,4.499-42.598,13.2c-15.601,10.8-36.903,16.5-61.501,16.5H105c-5.098,0-10.203,0.3-15,1.199V330.85    c0,4.2,1.802,8.399,5.098,11.1c0.3,0.3,1.802,1.5,4.204,3.6c16.198,13.5,79.896,60.3,156.698,60.3s140.501-46.8,156.698-60.3    c2.402-2.1,3.904-3.3,4.204-3.6c3.296-2.701,5.098-6.899,5.098-11.1V137.049C417.203,136.15,412.098,135.85,407,135.85z"/>
	</g>
	<path style="fill:#25D9F8;" d="M422,137.049V330.85c0,4.2-1.802,8.399-5.098,11.1c-0.3,0.3-1.802,1.5-4.204,3.6   c-16.198,13.5-79.896,60.3-156.698,60.3v-299.7c15,0,30,4.499,42.598,13.2c15.601,10.8,36.903,16.5,61.501,16.5H407   C412.098,135.85,417.203,136.15,422,137.049z"/>
	<g>
		<g>
			<g>
				<path style="fill:#A8EBFA;" d="M361,211.449c-0.601,7.8-7.2,14.101-15,14.101c-0.3,0-0.601-0.3-0.901-0.3      c-33.6-2.1-63.896-11.1-88.799-26.7c0,0-0.3,0-0.3,0.3c-25.203,15.3-55.8,24.3-89.099,26.4c-9.001,0.601-15.3-5.7-15.901-13.801      c-0.601-8.399,5.698-15.599,14.099-15.899c31.802-2.1,60.3-11.4,82.8-27.001c2.402-2.1,5.398-2.999,8.101-2.999      c2.999,0,6.299,0.899,9.302,2.999c21.599,15.601,49.797,24.901,81.599,27.001C355.302,195.85,361.601,203.05,361,211.449z"/>
			</g>
		</g>
	</g>
	<g>
		<g>
			<g>
				<path style="fill:#A8EBFA;" d="M331,270.85c0,8.399-6.599,15-15,15H196c-8.401,0-15-6.601-15-15c0-8.401,6.599-15,15-15h120      C324.401,255.85,331,262.449,331,270.85z"/>
			</g>
		</g>
	</g>
	<g>
		<g>
			<g>
				<path style="fill:#A8EBFA;" d="M301,330.85c0,8.399-6.599,15-15,15h-60c-8.401,0-15-6.601-15-15c0-8.401,6.599-15,15-15h60      C294.401,315.85,301,322.449,301,330.85z"/>
			</g>
		</g>
	</g>
	<path style="fill:#76E2F8;" d="M301,330.85c0,8.399-6.599,15-15,15h-30v-30h30C294.401,315.85,301,322.449,301,330.85z"/>
	<path style="fill:#76E2F8;" d="M331,270.85c0,8.399-6.599,15-15,15h-60v-30h60C324.401,255.85,331,262.449,331,270.85z"/>
	<path style="fill:#76E2F8;" d="M361,211.449c-0.601,7.8-7.2,14.101-15,14.101c-0.3,0-0.601-0.3-0.901-0.3   c-33.6-2.1-63.896-11.1-88.799-26.7c0,0-0.3,0-0.3,0.3v-33.3c2.999,0,6.299,0.899,9.302,2.999   c21.599,15.601,49.797,24.901,81.599,27.001C355.302,195.85,361.601,203.05,361,211.449z"/>
</g>















</svg>
